<svg width="90" viewBox="0 0 90 45" fill="none" xmlns="http://www.w3.org/2000/svg">
<g>
<path d="M113.295 35.6366C118.714 35.6366 121.027 32.6836 122.089 30.8809V35.0623H126.637V21.4839H112.916V25.7799H121.71C121.444 28.3876 119.057 31.4187 114.319 31.4187C109.581 31.4187 105.904 27.8896 105.904 21.6765C105.904 15.4251 109.77 11.9342 114.469 11.9342C118.714 11.9342 120.837 14.4275 121.974 17.6112L126.749 15.7704C125.348 11.5491 121.482 7.63662 114.469 7.63662C106.775 7.63662 100.749 13.6207 100.749 21.713C100.75 30.4974 106.245 35.6366 113.295 35.6366Z" fill="#91F7C0"/>
<path d="M136.749 12.4505V7.63662H131.749V12.4505H136.749ZM136.634 34.6366V15.4543H131.942V34.635H136.634V34.6366Z" fill="#91F7C0"/>
<path d="M148.4 35.6366C153.674 35.6366 156.749 33.1259 156.749 29.2614C156.749 25.197 153.257 23.6829 150.298 23.0449L147.831 22.5672C145.555 22.1292 144.985 21.5309 144.985 20.3755C144.985 19.1805 145.935 18.1441 148.06 18.1441C150.413 18.1441 151.664 19.6581 152.196 21.1722L156.105 19.4184C155.308 17.187 152.955 14.6366 148.25 14.6366C143.659 14.6366 140.509 17.1077 140.509 20.8135C140.509 24.6383 143.013 25.9937 146.656 26.7507L149.198 27.268C151.398 27.706 151.968 28.6234 151.968 29.7391C151.968 31.0945 150.792 32.0498 148.59 32.0498C145.174 32.0498 144.265 29.6184 143.999 28.5027L139.749 29.9374C140.545 33.5656 144.15 35.6366 148.4 35.6366Z" fill="#91F7C0"/>
<path d="M180.749 34.6366L171.684 23.1806L179.754 15.427H173.904L165.376 23.9518V17.2782V7.63662H160.749V34.6366H165.376V29.2366L168.436 26.3054L174.86 34.6366H180.749Z" fill="#91F7C0"/>
<path d="M188.169 35.6366C191.419 35.6366 193.47 33.9652 194.63 32.0959C194.863 33.8465 195.713 35.0393 198.151 35.0393H201.749V31.2215H199.969C198.963 31.2215 198.809 30.9822 198.809 30.0286V22.0348C198.809 17.1824 195.907 14.6366 190.607 14.6366C185.191 14.6366 182.174 17.5405 181.749 20.4839L186.043 21.6372C186.545 19.8866 187.744 18.2961 190.607 18.2961C193.083 18.2961 194.128 19.489 194.128 21.4375V22.114C187.821 22.7113 182.018 24.4206 182.018 29.9494C182.018 33.4488 184.571 35.6366 188.169 35.6366ZM189.718 31.9771C187.782 31.9771 186.816 31.0218 186.816 29.5105C186.816 26.6462 190.181 25.7322 194.128 25.295V26.8855C194.128 30.4262 191.961 31.9771 189.718 31.9771Z" fill="#91F7C0"/>
<path d="M209.574 34.6366V26.7658C209.574 22.1938 211.408 20.2832 215.597 20.2832C216.313 20.2832 217.031 20.3205 217.749 20.3951V15.7485C217.39 15.6739 216.991 15.6366 216.434 15.6366C212.007 15.6366 210.173 18.5965 209.494 20.0967V15.9723H204.749V34.635H209.574V34.6366Z" fill="#91F7C0"/>
<path d="M227.901 35.6366C231.21 35.6366 233.286 33.7571 234.171 32.308V35.0485H238.749V7.63662H234.055V14.765V18.2902C233.171 16.8411 231.17 14.9616 227.901 14.9616C223.056 14.9616 219.749 19.0342 219.749 25.3C219.749 31.564 223.056 35.6366 227.901 35.6366ZM229.441 31.8775C226.748 31.8775 224.632 30.1929 224.632 25.2983C224.632 20.4426 226.748 18.719 229.441 18.719C232.287 18.719 234.286 20.8731 234.286 25.2983C234.286 29.7234 232.287 31.8775 229.441 31.8775Z" fill="#91F7C0"/>  
<path fill-rule="evenodd" clip-rule="evenodd" d="M67.371 4.63521C69.5732 2.91972 72.2826 1.98592 75.0744 1.98169V1.98803C76.5728 1.9669 78.0606 2.24155 79.4512 2.7993C80.8419 3.35704 82.1078 4.18521 83.1751 5.23732C84.2423 6.28944 85.0898 7.54225 85.6689 8.92394C86.2479 10.3056 86.5459 11.7887 86.5459 13.2866C86.5459 14.7845 86.2479 16.2676 85.6689 17.6493C85.0898 19.031 84.2423 20.2838 83.1751 21.3359C82.1078 22.388 80.8419 23.2162 79.4512 23.7739C78.0606 24.3317 76.5728 24.6085 75.0744 24.5852L60.7202 24.619L53.1394 34.9944L24.5577 44.8901L33.1825 34.9099C28.1759 34.4535 23.37 32.7232 19.2214 29.8817H9.53356L0 21.4352H11.778C12.7607 9.47324 24.5091 0 38.7999 0C45.5015 0 52.237 2.0831 57.2859 5.71268C59.4965 7.26761 61.4049 9.21338 62.9181 11.4549C63.6028 8.7507 65.1689 6.3507 67.371 4.63521ZM21.1023 9.72465L32.8106 21.4394H37.3142L23.6173 7.73451C22.7339 8.33873 21.8948 9.00423 21.1023 9.72465ZM33.3136 3.71408L51.045 21.4394H55.5444L37.3248 3.22394C35.9786 3.29155 34.6387 3.45634 33.3136 3.71408ZM13.6927 24.6169H8.39443L10.7403 26.6915H15.4828C14.8488 26.0324 14.2507 25.3394 13.6927 24.6169ZM42.0694 24.6169H17.9216L17.9153 24.619C22.3112 29.0366 28.8606 31.7324 35.8074 31.8655L42.0694 24.6169ZM34.7126 38.0007L51.1528 32.3092L56.7744 24.6211H46.2751L34.7126 38.0007ZM65.731 21.3845H75.4949L75.5055 21.3866C77.6147 21.2704 79.5971 20.3366 81.0299 18.7838C82.4628 17.231 83.2321 15.1817 83.1772 13.069C83.1222 10.9585 82.2452 8.95141 80.7341 7.47465C79.223 5.99789 77.1962 5.16972 75.0828 5.16338C72.6038 5.16549 70.2262 6.15211 68.4742 7.90352C66.7201 9.65704 65.7353 12.0317 65.7331 14.512V21.0401V21.3845H65.731ZM76.6827 10.2232C77.7964 10.3331 78.6101 11.3261 78.5002 12.4394C78.3903 13.5528 77.397 14.3662 76.2832 14.2563C75.1695 14.1465 74.3558 13.1535 74.4657 12.0401C74.5777 10.9268 75.5689 10.1134 76.6827 10.2232Z" fill="#91F7C0"/>
</g>
<defs>
</defs>
</svg>